<?xml version="1.0" encoding="utf-8"?>
<svg version="1.1" id="tomorrow-icon" xmlns="http://www.w3.org/2000/svg" x="0px" y="0px" viewBox="0 0 24 24"
     enable-background="new 0 0 24 24" xml:space="preserve">
<rect fill-rule="evenodd" clip-rule="evenodd" fill="none" width="24" height="24"/>
<path fill="#0072F5" d="M19.9944,5.992C17.9109,7.9664,15.0969,9.1778,12,9.1778S6.0891,7.9664,4.0057,5.992
	c0.4462-0.5929,0.9572-1.1342,1.5219-1.6142C7.2138,5.9776,9.4922,6.9592,12,6.9592s4.7863-0.9816,6.4724-2.5814
	C19.0371,4.8578,19.5481,5.3991,19.9944,5.992z M16.372,3.0044c-0.8198-0.3992-1.7023-0.6898-2.6288-0.8527
	C13.2013,2.3573,12.614,2.4708,12,2.4708s-1.2012-0.1135-1.7432-0.3191C9.3303,2.3146,8.4477,2.6051,7.6279,3.0044
	c1.197,0.9614,2.7173,1.537,4.3721,1.537C13.6549,4.5413,15.175,3.9658,16.372,3.0044z M2.7978,8.0802
	c-0.2874,0.6736-0.5028,1.3851-0.637,2.125c2.2294,0.6602,4.2195,2.1428,5.4736,4.3152c1.2544,2.1727,1.5432,4.6377,1.0001,6.8986
	c0.6881,0.2458,1.411,0.4185,2.1593,0.5085c0.6682-2.7916,0.3105-5.8342-1.238-8.5163C8.0071,10.7284,5.5503,8.897,2.7978,8.0802z
	 M2.0256,12.7122c0.0662,0.9423,0.2628,1.8486,0.5723,2.7009c0.4497,0.3668,0.8423,0.819,1.1497,1.3514
	c0.3064,0.5307,0.5015,1.0948,0.5947,1.6658c0.595,0.7079,1.286,1.3323,2.0535,1.8527c0.2339-1.5171-0.0278-3.121-0.8551-4.5538
	C4.7136,14.2968,3.4558,13.2684,2.0256,12.7122z M21.8391,10.2052c-0.134-0.7399-0.3496-1.4514-0.637-2.125
	c-2.7524,0.8168-5.2092,2.6483-6.7581,5.3309c-1.5485,2.6821-1.9062,5.7247-1.238,8.5163c0.7483-0.09,1.4712-0.2626,2.1593-0.5085
	c-0.5431-2.2609-0.2543-4.7259,1.0001-6.8986C17.6197,12.3479,19.6098,10.8653,21.8391,10.2052z M18.4593,15.7293
	c-0.8273,1.4328-1.0889,3.0367-0.8551,4.5538c0.7676-0.5203,1.4585-1.1448,2.0535-1.8527c0.0933-0.571,0.2885-1.1351,0.5948-1.6658
	c0.3074-0.5323,0.6998-0.9846,1.1495-1.3514c0.3094-0.8523,0.5061-1.7586,0.5724-2.7009
	C20.5442,13.2684,19.2864,14.2968,18.4593,15.7293z"/>
</svg>
